<?xml version="1.0" encoding="utf-8"?>
<!-- Generator: Adobe Illustrator 16.0.5, SVG Export Plug-In . SVG Version: 6.00 Build 0)  -->
<!DOCTYPE svg PUBLIC "-//W3C//DTD SVG 1.1//EN" "http://www.w3.org/Graphics/SVG/1.1/DTD/svg11.dtd">
<svg version="1.1" id="Layer_1" xmlns="http://www.w3.org/2000/svg" xmlns:xlink="http://www.w3.org/1999/xlink" x="0px" y="0px"
	 width="98px" height="54px" viewBox="0 0 98 54" enable-background="new 0 0 98 54" xml:space="preserve">
<g>
	<g>
		<g>
			<path fill="#FFFFFF" d="M7.557,0.154l8.002,34.49l9.596-34.49h6.217l9.617,34.557l8.005-34.557h6.304L44.143,42.607h-6.041
				l-9.797-35.2l-9.854,35.2h-6.04L1.312,0.154H7.557z"/>
			<path fill="#FFFFFF" d="M61.293,0.154h19.299c3.178,0,5.797,0.473,7.859,1.416c3.916,1.811,5.875,5.154,5.875,10.028
				c0,2.543-0.525,4.625-1.575,6.243s-2.52,2.919-4.407,3.901c1.657,0.675,2.904,1.56,3.742,2.659s1.306,2.88,1.402,5.346
				l0.202,5.693c0.058,1.619,0.192,2.822,0.405,3.612c0.346,1.35,0.962,2.217,1.849,2.602v0.953h-7.052
				c-0.191-0.365-0.346-0.838-0.463-1.416c-0.115-0.578-0.211-1.695-0.287-3.352l-0.348-7.081c-0.131-2.774-1.133-4.633-3.004-5.577
				c-1.068-0.521-2.742-0.781-5.027-0.781H67.045v18.207h-5.752V0.154z M79.973,19.604c2.623,0,4.697-0.539,6.225-1.618
				c1.527-1.079,2.291-3.025,2.291-5.837c0-3.025-1.068-5.087-3.203-6.185c-1.145-0.579-2.67-0.867-4.582-0.867H67.045v14.508
				H79.973z"/>
		</g>
	</g>
	<g>
		<g>
			<path fill="#FFFFFF" d="M3.853,48.18c0.213-0.027,0.354-0.117,0.427-0.27c0.041-0.084,0.061-0.205,0.061-0.361
				c0-0.322-0.111-0.555-0.336-0.699c-0.223-0.145-0.543-0.217-0.959-0.217c-0.482,0-0.824,0.133-1.025,0.398
				c-0.112,0.146-0.186,0.364-0.22,0.654H0.938c0.017-0.689,0.236-1.17,0.658-1.44c0.423-0.27,0.912-0.405,1.469-0.405
				c0.646,0,1.17,0.126,1.574,0.376c0.4,0.25,0.6,0.639,0.6,1.167V50.6c0,0.097,0.02,0.175,0.059,0.234
				c0.039,0.059,0.123,0.088,0.25,0.088c0.041,0,0.087-0.002,0.138-0.008c0.052-0.006,0.106-0.012,0.165-0.023v0.693
				c-0.145,0.041-0.254,0.067-0.329,0.078s-0.177,0.016-0.309,0.016c-0.317,0-0.548-0.115-0.692-0.344
				c-0.074-0.121-0.129-0.294-0.159-0.516c-0.188,0.25-0.458,0.467-0.812,0.651c-0.352,0.184-0.74,0.275-1.164,0.275
				c-0.51,0-0.926-0.157-1.25-0.471c-0.322-0.313-0.484-0.707-0.484-1.179c0-0.518,0.158-0.918,0.477-1.203s0.736-0.459,1.253-0.525
				L3.853,48.18z M1.907,50.714c0.195,0.156,0.426,0.233,0.692,0.233c0.325,0,0.641-0.074,0.945-0.229
				c0.513-0.254,0.77-0.668,0.77-1.244v-0.754c-0.113,0.073-0.258,0.135-0.436,0.184s-0.352,0.083-0.521,0.104l-0.559,0.072
				c-0.336,0.045-0.587,0.117-0.756,0.214c-0.285,0.162-0.428,0.422-0.428,0.779C1.615,50.344,1.713,50.559,1.907,50.714z"/>
			<path fill="#FFFFFF" d="M6.777,45.977h0.879v0.963c0.071-0.187,0.248-0.415,0.527-0.684c0.281-0.27,0.605-0.405,0.971-0.405
				c0.018,0,0.047,0.003,0.088,0.006s0.11,0.011,0.21,0.021v0.99c-0.056-0.01-0.105-0.018-0.151-0.021
				c-0.047-0.003-0.097-0.004-0.151-0.004c-0.466,0-0.823,0.15-1.072,0.455c-0.251,0.305-0.376,0.654-0.376,1.051v3.209H6.777
				V45.977z"/>
			<path fill="#FFFFFF" d="M13.354,46.2c0.171,0.124,0.335,0.31,0.492,0.553v-0.776h0.871v7.807h-0.922v-2.866
				c-0.154,0.25-0.367,0.448-0.639,0.596c-0.272,0.148-0.611,0.222-1.018,0.222c-0.584,0-1.107-0.232-1.568-0.698
				c-0.462-0.465-0.692-1.175-0.692-2.126c0-0.893,0.216-1.626,0.648-2.199s0.992-0.86,1.679-0.86
				C12.659,45.851,13.043,45.967,13.354,46.2z M11.043,50.057c0.235,0.58,0.657,0.87,1.266,0.87c0.643,0,1.084-0.306,1.326-0.917
				c0.134-0.337,0.201-0.768,0.201-1.293c0-0.482-0.074-0.885-0.221-1.209c-0.25-0.553-0.688-0.828-1.317-0.828
				c-0.399,0-0.742,0.176-1.026,0.529c-0.286,0.352-0.429,0.896-0.429,1.633C10.843,49.326,10.91,49.73,11.043,50.057z"/>
			<path fill="#FFFFFF" d="M17.022,45.977v3.705c0,0.285,0.043,0.518,0.13,0.698c0.16,0.333,0.458,0.5,0.895,0.5
				c0.627,0,1.053-0.292,1.28-0.876c0.123-0.312,0.185-0.74,0.185-1.287v-2.74h0.924v5.58h-0.873l0.011-0.822
				c-0.117,0.212-0.263,0.391-0.438,0.536c-0.346,0.292-0.766,0.438-1.259,0.438c-0.769,0-1.293-0.266-1.571-0.797
				c-0.15-0.285-0.227-0.666-0.227-1.143v-3.793H17.022z"/>
			<path fill="#FFFFFF" d="M21.943,43.902h0.939v1.062h-0.939V43.902z M21.943,46.002h0.939v5.555h-0.939V46.002z"/>
			<path fill="#FFFFFF" d="M24.465,44.418h0.934v1.559h0.877v0.766h-0.877v3.643c0,0.195,0.064,0.326,0.195,0.391
				c0.07,0.039,0.191,0.059,0.359,0.059c0.044,0,0.092-0.002,0.143-0.004c0.052-0.002,0.111-0.008,0.18-0.018v0.744
				c-0.105,0.032-0.215,0.055-0.33,0.068s-0.238,0.021-0.373,0.021c-0.43,0-0.723-0.113-0.877-0.336
				c-0.153-0.225-0.23-0.516-0.23-0.873v-3.695h-0.744v-0.766h0.744V44.418z"/>
			<path fill="#FFFFFF" d="M30.596,46.13c0.363,0.186,0.641,0.427,0.831,0.722c0.185,0.281,0.306,0.609,0.367,0.984
				c0.055,0.258,0.081,0.668,0.081,1.23h-3.998c0.018,0.568,0.148,1.023,0.393,1.367c0.244,0.343,0.623,0.514,1.135,0.514
				c0.479,0,0.861-0.161,1.146-0.486c0.16-0.188,0.273-0.406,0.34-0.654h0.908c-0.023,0.205-0.104,0.434-0.238,0.686
				c-0.136,0.252-0.286,0.457-0.453,0.617c-0.279,0.278-0.623,0.465-1.033,0.563c-0.221,0.056-0.471,0.083-0.75,0.083
				c-0.68,0-1.256-0.253-1.729-0.758c-0.473-0.506-0.709-1.214-0.709-2.125c0-0.896,0.238-1.623,0.715-2.184
				c0.476-0.559,1.098-0.839,1.866-0.839C29.855,45.851,30.23,45.943,30.596,46.13z M30.926,48.321
				c-0.037-0.406-0.123-0.731-0.259-0.974c-0.251-0.453-0.671-0.678-1.258-0.678c-0.421,0-0.772,0.154-1.058,0.466
				c-0.286,0.312-0.437,0.706-0.454,1.186H30.926z"/>
			<path fill="#FFFFFF" d="M36.678,46.273c0.389,0.306,0.621,0.832,0.699,1.58h-0.897c-0.055-0.346-0.18-0.631-0.375-0.858
				c-0.194-0.228-0.509-0.342-0.938-0.342c-0.589,0-1.01,0.292-1.263,0.874c-0.165,0.379-0.247,0.846-0.247,1.401
				c0,0.558,0.117,1.028,0.35,1.411c0.232,0.381,0.599,0.572,1.098,0.572c0.383,0,0.688-0.119,0.912-0.355
				c0.223-0.237,0.379-0.562,0.464-0.975h0.897c-0.102,0.74-0.359,1.281-0.77,1.623c-0.41,0.343-0.936,0.514-1.574,0.514
				c-0.721,0-1.293-0.266-1.721-0.799c-0.428-0.534-0.642-1.2-0.642-2c0-0.979,0.234-1.742,0.704-2.287
				c0.469-0.545,1.064-0.818,1.791-0.818C35.785,45.814,36.288,45.967,36.678,46.273z"/>
			<path fill="#FFFFFF" d="M38.486,44.418h0.934v1.559h0.879v0.766H39.42v3.643c0,0.195,0.065,0.326,0.195,0.391
				c0.072,0.039,0.191,0.059,0.359,0.059c0.045,0,0.093-0.002,0.144-0.004c0.052-0.002,0.112-0.008,0.181-0.018v0.744
				c-0.107,0.032-0.217,0.055-0.332,0.068c-0.114,0.014-0.238,0.021-0.372,0.021c-0.431,0-0.724-0.113-0.877-0.336
				c-0.155-0.225-0.231-0.516-0.231-0.873v-3.695h-0.744v-0.766h0.744V44.418z"/>
			<path fill="#FFFFFF" d="M42.146,45.977v3.705c0,0.285,0.042,0.518,0.129,0.698c0.16,0.333,0.459,0.5,0.895,0.5
				c0.627,0,1.053-0.292,1.28-0.876c0.123-0.312,0.185-0.74,0.185-1.287v-2.74h0.924v5.58h-0.872l0.011-0.822
				c-0.118,0.212-0.265,0.391-0.439,0.536c-0.346,0.292-0.766,0.438-1.259,0.438c-0.769,0-1.293-0.266-1.571-0.797
				c-0.151-0.285-0.227-0.666-0.227-1.143v-3.793H42.146z"/>
			<path fill="#FFFFFF" d="M47.094,45.977h0.877v0.963c0.072-0.187,0.248-0.415,0.529-0.684c0.28-0.27,0.604-0.405,0.97-0.405
				c0.018,0,0.046,0.003,0.087,0.006s0.111,0.011,0.211,0.021v0.99c-0.055-0.01-0.105-0.018-0.152-0.021
				c-0.047-0.003-0.097-0.004-0.15-0.004c-0.465,0-0.823,0.15-1.073,0.455c-0.249,0.305-0.374,0.654-0.374,1.051v3.209h-0.924
				V45.977z"/>
			<path fill="#FFFFFF" d="M53.514,48.18c0.213-0.027,0.354-0.117,0.426-0.27c0.042-0.084,0.062-0.205,0.062-0.361
				c0-0.322-0.113-0.555-0.336-0.699s-0.543-0.217-0.96-0.217c-0.481,0-0.823,0.133-1.024,0.398
				c-0.113,0.146-0.186,0.364-0.221,0.654H50.6c0.016-0.689,0.236-1.17,0.658-1.44c0.422-0.27,0.912-0.405,1.469-0.405
				c0.646,0,1.17,0.126,1.574,0.376c0.398,0.25,0.6,0.639,0.6,1.167V50.6c0,0.097,0.019,0.175,0.059,0.234
				c0.039,0.059,0.121,0.088,0.25,0.088c0.039,0,0.086-0.002,0.139-0.008c0.051-0.006,0.105-0.012,0.162-0.023v0.693
				c-0.143,0.041-0.252,0.067-0.327,0.078s-0.179,0.016-0.309,0.016c-0.317,0-0.55-0.115-0.692-0.344
				c-0.076-0.121-0.129-0.294-0.159-0.516c-0.188,0.25-0.459,0.467-0.812,0.651c-0.352,0.184-0.741,0.275-1.164,0.275
				c-0.51,0-0.928-0.157-1.251-0.471s-0.484-0.707-0.484-1.179c0-0.518,0.159-0.918,0.478-1.203s0.736-0.459,1.252-0.525
				L53.514,48.18z M51.569,50.714c0.194,0.156,0.426,0.233,0.692,0.233c0.325,0,0.641-0.074,0.943-0.229
				c0.515-0.254,0.771-0.668,0.771-1.244v-0.754c-0.113,0.073-0.259,0.135-0.436,0.184c-0.178,0.049-0.353,0.083-0.523,0.104
				l-0.558,0.072c-0.335,0.045-0.586,0.117-0.755,0.214c-0.286,0.162-0.428,0.422-0.428,0.779
				C51.277,50.344,51.373,50.559,51.569,50.714z"/>
			<path fill="#FFFFFF" d="M62.771,45.977h1.021c-0.129,0.357-0.418,1.175-0.867,2.451c-0.335,0.959-0.615,1.74-0.842,2.346
				c-0.532,1.422-0.908,2.291-1.127,2.604s-0.596,0.469-1.129,0.469c-0.13,0-0.229-0.006-0.3-0.016
				c-0.07-0.011-0.156-0.029-0.259-0.058v-0.854c0.16,0.045,0.276,0.073,0.348,0.083c0.072,0.011,0.136,0.017,0.189,0.017
				c0.172,0,0.297-0.029,0.377-0.086c0.08-0.059,0.148-0.128,0.203-0.212c0.017-0.027,0.078-0.169,0.184-0.426
				c0.105-0.256,0.184-0.447,0.23-0.572l-2.031-5.745h1.047l1.473,4.546L62.771,45.977z"/>
			<path fill="#FFFFFF" d="M70.529,46.147c0.165,0.105,0.35,0.287,0.559,0.548v-2.819h0.888v7.681h-0.831v-0.775
				c-0.215,0.344-0.47,0.592-0.763,0.745s-0.628,0.229-1.007,0.229c-0.611,0-1.139-0.262-1.585-0.785
				c-0.446-0.521-0.671-1.219-0.671-2.087c0-0.812,0.205-1.518,0.611-2.112c0.408-0.596,0.989-0.895,1.746-0.895
				C69.896,45.877,70.248,45.967,70.529,46.147z M68.468,50.332c0.249,0.404,0.647,0.605,1.194,0.605
				c0.426,0,0.775-0.187,1.051-0.561c0.273-0.373,0.41-0.909,0.41-1.607c0-0.705-0.141-1.227-0.423-1.566
				c-0.283-0.338-0.632-0.508-1.048-0.508c-0.463,0-0.838,0.182-1.125,0.542c-0.288,0.361-0.432,0.894-0.432,1.595
				C68.096,49.43,68.219,49.93,68.468,50.332z"/>
			<path fill="#FFFFFF" d="M73.356,43.902h0.938v1.062h-0.938V43.902z M73.356,46.002h0.938v5.555h-0.938V46.002z"/>
			<path fill="#FFFFFF" d="M76.24,49.807c0.027,0.312,0.107,0.553,0.236,0.719c0.236,0.303,0.648,0.454,1.236,0.454
				c0.35,0,0.656-0.076,0.922-0.228c0.266-0.15,0.397-0.385,0.397-0.7c0-0.24-0.106-0.423-0.318-0.548
				c-0.136-0.076-0.403-0.164-0.804-0.266l-0.744-0.188c-0.477-0.117-0.828-0.25-1.055-0.396c-0.402-0.253-0.605-0.604-0.605-1.053
				c0-0.527,0.19-0.955,0.57-1.281s0.89-0.49,1.531-0.49c0.84,0,1.445,0.246,1.815,0.74c0.233,0.312,0.345,0.649,0.339,1.011h-0.873
				c-0.018-0.21-0.093-0.401-0.226-0.575c-0.218-0.244-0.595-0.367-1.13-0.367c-0.357,0-0.627,0.066-0.812,0.203
				c-0.185,0.135-0.276,0.312-0.276,0.533c0,0.242,0.121,0.438,0.363,0.582c0.139,0.086,0.344,0.162,0.617,0.229l0.621,0.15
				c0.678,0.164,1.13,0.322,1.359,0.475c0.36,0.24,0.54,0.617,0.54,1.132c0,0.496-0.188,0.925-0.564,1.286
				c-0.376,0.363-0.948,0.543-1.716,0.543c-0.829,0-1.416-0.188-1.76-0.566c-0.346-0.376-0.529-0.843-0.554-1.398H76.24z"/>
			<path fill="#FFFFFF" d="M84.342,46.13c0.364,0.186,0.642,0.427,0.832,0.722c0.184,0.281,0.307,0.609,0.367,0.984
				c0.055,0.258,0.082,0.668,0.082,1.23h-3.998c0.017,0.568,0.146,1.023,0.393,1.367c0.244,0.343,0.621,0.514,1.135,0.514
				c0.479,0,0.861-0.161,1.146-0.486c0.159-0.188,0.272-0.406,0.339-0.654h0.909c-0.024,0.205-0.104,0.434-0.239,0.686
				s-0.285,0.457-0.452,0.617c-0.278,0.278-0.623,0.465-1.034,0.563c-0.221,0.056-0.47,0.083-0.748,0.083
				c-0.68,0-1.257-0.253-1.729-0.758c-0.474-0.506-0.711-1.214-0.711-2.125c0-0.896,0.238-1.623,0.715-2.184
				c0.477-0.559,1.098-0.839,1.867-0.839C83.603,45.851,83.979,45.943,84.342,46.13z M84.673,48.321
				c-0.038-0.406-0.124-0.731-0.259-0.974c-0.252-0.453-0.67-0.678-1.258-0.678c-0.42,0-0.773,0.154-1.059,0.466
				s-0.436,0.706-0.453,1.186H84.673z"/>
			<path fill="#FFFFFF" d="M86.793,45.977h0.877v0.791c0.26-0.326,0.537-0.56,0.827-0.703c0.29-0.143,0.613-0.214,0.97-0.214
				c0.78,0,1.307,0.276,1.58,0.829c0.15,0.303,0.227,0.735,0.227,1.298v3.579h-0.939v-3.518c0-0.34-0.049-0.614-0.148-0.822
				c-0.165-0.348-0.462-0.521-0.893-0.521c-0.22,0-0.399,0.023-0.539,0.067c-0.254,0.077-0.477,0.229-0.668,0.458
				c-0.154,0.186-0.254,0.375-0.301,0.571c-0.045,0.196-0.068,0.478-0.068,0.842v2.923h-0.924V45.977z M89.508,44.246
				c0.096,0.042,0.184,0.074,0.262,0.1c0.079,0.023,0.159,0.035,0.241,0.035c0.192,0,0.329-0.061,0.411-0.182
				c0.045-0.066,0.074-0.165,0.092-0.297h0.539c-0.071,0.441-0.209,0.744-0.413,0.912c-0.204,0.166-0.427,0.25-0.67,0.25
				c-0.075,0-0.171-0.015-0.288-0.042c-0.115-0.028-0.219-0.059-0.307-0.094l-0.272-0.099c-0.161-0.06-0.292-0.104-0.393-0.133
				c-0.102-0.029-0.199-0.045-0.295-0.045c-0.12,0-0.219,0.04-0.296,0.12c-0.076,0.079-0.129,0.201-0.156,0.364H87.46
				c0.044-0.274,0.118-0.498,0.221-0.672c0.194-0.32,0.484-0.479,0.867-0.479c0.117,0,0.245,0.018,0.388,0.052
				C89.078,44.072,89.269,44.141,89.508,44.246z"/>
			<path fill="#FFFFFF" d="M96.621,46.533c0.486,0.479,0.729,1.184,0.729,2.113c0,0.899-0.214,1.643-0.642,2.229
				c-0.429,0.587-1.093,0.88-1.993,0.88c-0.751,0-1.347-0.26-1.789-0.779c-0.441-0.518-0.662-1.215-0.662-2.09
				c0-0.937,0.232-1.684,0.699-2.239c0.465-0.556,1.09-0.833,1.875-0.833C95.541,45.814,96.135,46.055,96.621,46.533z
				 M96.047,50.243c0.227-0.47,0.338-0.993,0.338-1.57c0-0.521-0.082-0.943-0.244-1.27c-0.256-0.514-0.699-0.771-1.329-0.771
				c-0.558,0-0.964,0.219-1.218,0.656c-0.254,0.437-0.381,0.965-0.381,1.582c0,0.594,0.127,1.088,0.381,1.484
				c0.254,0.395,0.656,0.592,1.209,0.592C95.407,50.947,95.822,50.713,96.047,50.243z"/>
		</g>
	</g>
</g>
</svg>
